<svg height="1342" width="720" xmlns="http://www.w3.org/2000/svg">
<rect height="1342" fill="#555" width="720"></rect>
<text fill="#7f7" font-family="Courier New" font-size="12" xml:space="preserve">
<tspan x="10" y="26">25 megabytes installed</tspan>
<tspan x="10" y="42"></tspan>
<tspan x="10" y="58">node_modules</tspan>
<tspan x="10" y="74">└─┬ pdfkit@0.8.0 </tspan>
<tspan x="10" y="90">  ├─┬ fontkit@1.5.4 </tspan>
<tspan x="10" y="106">  │ ├─┬ babel-runtime@6.23.0 </tspan>
<tspan x="10" y="122">  │ │ ├── core-js@2.4.1 </tspan>
<tspan x="10" y="138">  │ │ └── regenerator-runtime@0.10.3 </tspan>
<tspan x="10" y="154">  │ ├─┬ brfs@1.4.3 </tspan>
<tspan x="10" y="170">  │ │ ├─┬ quote-stream@1.0.2 </tspan>
<tspan x="10" y="186">  │ │ │ ├── buffer-equal@0.0.1 </tspan>
<tspan x="10" y="202">  │ │ │ └── minimist@1.2.0 </tspan>
<tspan x="10" y="218">  │ │ ├─┬ resolve@1.3.2 </tspan>
<tspan x="10" y="234">  │ │ │ └── path-parse@1.0.5 </tspan>
<tspan x="10" y="250">  │ │ ├─┬ static-module@1.3.1 </tspan>
<tspan x="10" y="266">  │ │ │ ├─┬ concat-stream@1.4.10 </tspan>
<tspan x="10" y="282">  │ │ │ │ ├── inherits@2.0.3 </tspan>
<tspan x="10" y="298">  │ │ │ │ ├─┬ readable-stream@1.1.14 </tspan>
<tspan x="10" y="314">  │ │ │ │ │ ├── isarray@0.0.1 </tspan>
<tspan x="10" y="330">  │ │ │ │ │ └── string_decoder@0.10.31 </tspan>
<tspan x="10" y="346">  │ │ │ │ └── typedarray@0.0.6 </tspan>
<tspan x="10" y="362">  │ │ │ ├─┬ duplexer2@0.0.2 </tspan>
<tspan x="10" y="378">  │ │ │ │ └─┬ readable-stream@1.1.14 </tspan>
<tspan x="10" y="394">  │ │ │ │   ├── isarray@0.0.1 </tspan>
<tspan x="10" y="410">  │ │ │ │   └── string_decoder@0.10.31 </tspan>
<tspan x="10" y="426">  │ │ │ ├─┬ escodegen@1.3.3 </tspan>
<tspan x="10" y="442">  │ │ │ │ ├── esprima@1.1.1 </tspan>
<tspan x="10" y="458">  │ │ │ │ ├── estraverse@1.5.1 </tspan>
<tspan x="10" y="474">  │ │ │ │ ├── esutils@1.0.0 </tspan>
<tspan x="10" y="490">  │ │ │ │ └─┬ source-map@0.1.43 </tspan>
<tspan x="10" y="506">  │ │ │ │   └── amdefine@1.0.1 </tspan>
<tspan x="10" y="522">  │ │ │ ├─┬ falafel@1.2.0 </tspan>
<tspan x="10" y="538">  │ │ │ │ ├── acorn@1.2.2 </tspan>
<tspan x="10" y="554">  │ │ │ │ ├── foreach@2.0.5 </tspan>
<tspan x="10" y="570">  │ │ │ │ ├── isarray@0.0.1 </tspan>
<tspan x="10" y="586">  │ │ │ │ └── object-keys@1.0.11 </tspan>
<tspan x="10" y="602">  │ │ │ ├─┬ has@1.0.1 </tspan>
<tspan x="10" y="618">  │ │ │ │ └── function-bind@1.1.0 </tspan>
<tspan x="10" y="634">  │ │ │ ├── object-inspect@0.4.0 </tspan>
<tspan x="10" y="650">  │ │ │ ├─┬ quote-stream@0.0.0 </tspan>
<tspan x="10" y="666">  │ │ │ │ └── minimist@0.0.8 </tspan>
<tspan x="10" y="682">  │ │ │ ├─┬ readable-stream@1.0.34 </tspan>
<tspan x="10" y="698">  │ │ │ │ ├── core-util-is@1.0.2 </tspan>
<tspan x="10" y="714">  │ │ │ │ ├── isarray@0.0.1 </tspan>
<tspan x="10" y="730">  │ │ │ │ └── string_decoder@0.10.31 </tspan>
<tspan x="10" y="746">  │ │ │ ├── shallow-copy@0.0.1 </tspan>
<tspan x="10" y="762">  │ │ │ ├─┬ static-eval@0.2.4 </tspan>
<tspan x="10" y="778">  │ │ │ │ └─┬ escodegen@0.0.28 </tspan>
<tspan x="10" y="794">  │ │ │ │   ├── esprima@1.0.4 </tspan>
<tspan x="10" y="810">  │ │ │ │   └── estraverse@1.3.2 </tspan>
<tspan x="10" y="826">  │ │ │ └─┬ through2@0.4.2 </tspan>
<tspan x="10" y="842">  │ │ │   └─┬ xtend@2.1.2 </tspan>
<tspan x="10" y="858">  │ │ │     └── object-keys@0.4.0 </tspan>
<tspan x="10" y="874">  │ │ └─┬ through2@2.0.3 </tspan>
<tspan x="10" y="890">  │ │   ├─┬ readable-stream@2.2.9 </tspan>
<tspan x="10" y="906">  │ │   │ ├── buffer-shims@1.0.0 </tspan>
<tspan x="10" y="922">  │ │   │ ├── isarray@1.0.0 </tspan>
<tspan x="10" y="938">  │ │   │ ├── process-nextick-args@1.0.7 </tspan>
<tspan x="10" y="954">  │ │   │ ├── string_decoder@1.0.0 </tspan>
<tspan x="10" y="970">  │ │   │ └── util-deprecate@1.0.2 </tspan>
<tspan x="10" y="986">  │ │   └── xtend@4.0.1 </tspan>
<tspan x="10" y="1002">  │ ├─┬ brotli@1.3.1 </tspan>
<tspan x="10" y="1018">  │ │ └── base64-js@1.2.0 </tspan>
<tspan x="10" y="1034">  │ ├─┬ browserify-optional@1.0.0 </tspan>
<tspan x="10" y="1050">  │ │ ├─┬ ast-transform@0.0.0 </tspan>
<tspan x="10" y="1066">  │ │ │ ├── escodegen@1.2.0 </tspan>
<tspan x="10" y="1082">  │ │ │ ├── esprima@1.0.4 </tspan>
<tspan x="10" y="1098">  │ │ │ └── through@2.3.8 </tspan>
<tspan x="10" y="1114">  │ │ ├── ast-types@0.7.8 </tspan>
<tspan x="10" y="1130">  │ │ └─┬ browser-resolve@1.11.2 </tspan>
<tspan x="10" y="1146">  │ │   └── resolve@1.1.7 </tspan>
<tspan x="10" y="1162">  │ ├── clone@1.0.2 </tspan>
<tspan x="10" y="1178">  │ ├── deep-equal@1.0.1 </tspan>
<tspan x="10" y="1194">  │ ├── dfa@1.0.0 </tspan>
<tspan x="10" y="1210">  │ ├── restructure@0.5.3 </tspan>
<tspan x="10" y="1226">  │ ├── tiny-inflate@1.0.2 </tspan>
<tspan x="10" y="1242">  │ ├── unicode-properties@1.1.0 </tspan>
<tspan x="10" y="1258">  │ └─┬ unicode-trie@0.3.1 </tspan>
<tspan x="10" y="1274">  │   └── pako@0.2.9 </tspan>
<tspan x="10" y="1290">  ├─┬ linebreak@0.1.2 </tspan>
<tspan x="10" y="1306">  │ └── unicode-trie@0.1.2 </tspan>
<tspan x="10" y="1322">  └── png-js@0.1.1</tspan>
</text>
</svg>
